<svg width="272" height="63" viewBox="0 0 272 63" fill="none" xmlns="http://www.w3.org/2000/svg">
<g clip-path="url(#clip0_453_220)">
<path d="M83 31.6V49.7H77.4V13.8H83V31.3V31.6Z" fill="white"/>
<path d="M105 49.7L90.7 31.3L90.8 31.2L104.8 13.8H98.2L84.1 31.5L97.8 49.7H105Z" fill="white"/>
<path d="M104.1 32.5C104.1 39.1 105.8 43.8 109.4 46.7C112.6 49.3 115.6 49.8 120.4 49.8H130.7V45.4H120.7C113.6 45.4 110.8 42.4 110.7 34.9V33.8H130.7V29.4H110.7L110.8 28.2C111.1 21.5 114.4 18.3 120.8 18.3H130.8V13.9H120.7C109.2 13.8 104.1 19.6 104.1 32.5Z" fill="white"/>
<path d="M134.9 32.5C134.9 39.1 136.6 43.8 140.2 46.7C143.4 49.3 146.4 49.8 151.2 49.8H161.5V45.4H151.5C144.4 45.4 141.6 42.4 141.5 34.9V33.8H161.5V29.4H141.5L141.6 28.2C141.9 21.5 145.2 18.3 151.6 18.3H161.6V13.9H151.5C139.9 13.8 134.9 19.6 134.9 32.5Z" fill="white"/>
<path d="M191.1 43.2L175.1 13.8H166.9V49.7H172.3V18.9L189.1 49.7H196.4V13.8H191L191.1 43.2Z" fill="white"/>
<path d="M266.1 43.2L250.1 13.8H242V49.7H247.4V18.9L264.2 49.7H271.5V13.8H266.1V43.2Z" fill="white"/>
<path d="M202 31.4C202 44.6 207.4 50.5 219.5 50.5C231.5 50.5 237 44.5 237 31.7C237 18.9 231.4 13 219.5 13C207.6 13.1 202 18.9 202 31.4ZM230.7 31.8C230.7 41.5 227 46.2 219.5 46.2C211.9 46.2 208.4 41.5 208.4 31.5C208.4 22.2 212.1 17.4 219.5 17.4C227.1 17.4 230.7 22.1 230.7 31.8Z" fill="white"/>
<path d="M62.7 23.7L56.6 25.3C57.2 27.5 57.4 29.7 57.4 31.9C57.4 34.1 57.1 36.3 56.5 38.5L62.6 40.2C63.3 37.5 63.7 34.8 63.8 32C63.7 29.2 63.4 26.4 62.7 23.7Z" fill="white"/>
<path d="M44.4 53.7L47.5 59.2C50 57.8 52.2 56.1 54.1 54.2L49.7 49.7C48.2 51.2 46.4 52.5 44.4 53.7Z" fill="white"/>
<path d="M38.9 7.09999L40.6 0.999988C37.9 0.299988 35.2 -0.100012 32.4 -0.200012L32.3 6.09999C34.5 6.19999 36.7 6.49999 38.9 7.09999Z" fill="white"/>
<path d="M38.3 56.1C36.1 56.7 33.9 56.9 31.7 56.9C29.5 56.9 27.3 56.6 25.1 56C23 55.4 20.9 54.5 19 53.4C17.1 52.3 15.4 50.9 13.8 49.3C12.3 47.7 10.9 46 9.80001 44C8.70001 42 7.90001 40 7.30001 37.9L1.20001 39.5C1.90001 42.1 2.90001 44.7 4.30001 47.2C5.70001 49.7 7.40001 51.9 9.30001 53.8C11.3 55.8 13.5 57.5 15.8 58.9C18.2 60.3 20.7 61.4 23.4 62.2C26.1 62.9 28.8 63.3 31.6 63.4C34.3 63.4 37.1 63.1 39.8 62.4L38.3 56.1Z" fill="white"/>
<path d="M9.89999 8.79999C7.89999 10.8 6.19999 13 4.79999 15.3C3.39999 17.7 2.29999 20.3 1.49999 22.9C0.799988 25.6 0.399988 28.3 0.299988 31.1L6.59999 31.2C6.59999 29 6.89999 26.8 7.49999 24.6C8.09999 22.5 8.99999 20.4 10.1 18.5C11.2 16.6 12.6 14.9 14.2 13.3L9.89999 8.79999Z" fill="white"/>
<path d="M36.7 50.1L38.2 56.1C40.3 55.6 42.4 54.7 44.3 53.6L41.3 48.2C39.9 49.1 38.3 49.7 36.7 50.1Z" fill="white"/>
<path d="M56.5 25.3C56 23.2 55.2 21.1 54.1 19.1L48.7 22.1C49.5 23.5 50.1 25.1 50.5 26.8H50.6L54.6 25.8L56.5 25.3Z" fill="white"/>
<path d="M45.4 45.3L49.7 49.7C51.3 48.1 52.7 46.4 53.8 44.5L48.5 41.3C47.7 42.8 46.6 44.1 45.4 45.3Z" fill="white"/>
<path d="M41.4 48.3L44.4 53.7C46.4 52.6 48.2 51.2 49.7 49.7L45.4 45.3C44.2 46.4 42.9 47.4 41.4 48.3Z" fill="white"/>
<path d="M56.6 25.3L50.6 26.8C51 28.4 51.2 30.1 51.2 31.8C51.2 33.5 50.9 35.1 50.5 36.8L56.4 38.5C57 36.4 57.3 34.2 57.3 31.9C57.4 29.6 57.1 27.4 56.6 25.3Z" fill="white"/>
<path d="M36.7 50.1C35.1 50.5 33.4 50.7 31.7 50.7C30 50.7 28.4 50.4 26.7 50C25.1 49.5 23.5 48.9 22.1 48C20.7 47.2 19.3 46.1 18.2 44.9C17.1 43.7 16 42.4 15.2 40.9C14.4 39.4 13.7 37.8 13.3 36.2L7.29999 37.7C7.79999 39.8 8.69999 41.9 9.79999 43.8C10.9 45.8 12.3 47.6 13.8 49.1C15.4 50.7 17.1 52.1 19 53.2C20.9 54.3 23 55.2 25.1 55.8C27.2 56.4 29.4 56.7 31.7 56.7C33.9 56.7 36.1 56.5 38.3 55.9L36.7 50.1Z" fill="white"/>
<path d="M32.2 12.3L32.3 6.09998C30.1 6.09998 27.9 6.29997 25.7 6.89997L27.2 12.9C28.9 12.5 30.6 12.3 32.2 12.3Z" fill="white"/>
<path d="M37.2 13.1L38.9 7.10001C36.8 6.50001 34.6 6.20001 32.3 6.20001L32.2 12.4C33.9 12.4 35.6 12.6 37.2 13.1Z" fill="white"/>
<path d="M12.8 31.3L6.59998 31.2C6.59998 33.4 6.79997 35.6 7.39997 37.8L13.4 36.3C13 34.6 12.8 33 12.8 31.3Z" fill="white"/>
<path d="M22.6 14.8L19.6 9.39996C17.6 10.5 15.8 11.9 14.3 13.4L18.6 17.8C19.8 16.7 21.1 15.6 22.6 14.8Z" fill="white"/>
<path d="M14.3 13.4C12.7 15 11.3 16.7 10.2 18.6C9.10001 20.5 8.20001 22.6 7.60001 24.7C7.00001 26.8 6.70001 29 6.70001 31.3L12.9 31.4C12.9 29.7 13.2 28.1 13.6 26.4C14.1 24.8 14.7 23.2 15.6 21.8C16.4 20.4 17.5 19 18.7 17.9L14.3 13.4Z" fill="white"/>
<path d="M35.5 19L37.2 13.1C35.6 12.6 33.9 12.4 32.2 12.4L32.1 18.6C33.3 18.5 34.4 18.7 35.5 19Z" fill="white"/>
<path d="M48.7 22.1C47.9 20.6 46.9 19.3 45.7 18.1C44.5 16.9 43.2 15.8 41.8 15L38.7 20.3C39.7 20.9 40.5 21.6 41.3 22.4C42.1 23.2 42.8 24.2 43.4 25.2L48.7 22.1Z" fill="white"/>
<path d="M32.2 18.5L32.3 12.3C30.6 12.3 29 12.5 27.3 12.9L28.8 18.9C29.9 18.6 31 18.5 32.2 18.5Z" fill="white"/>
<path d="M50.6 26.8C50.2 25.2 49.5 23.6 48.7 22.1L43.4 25.1C44 26.1 44.4 27.2 44.7 28.3C45 29.4 45.1 30.5 45.1 31.7C45.1 32.8 44.9 34 44.6 35.1C44.3 36.2 43.8 37.2 43.3 38.2C42.7 39.2 42 40.1 41.2 40.9C40.4 41.7 39.5 42.4 38.5 42.9C37.5 43.5 36.4 43.9 35.3 44.2C34.2 44.5 33 44.6 31.9 44.6C30.8 44.6 29.6 44.4 28.5 44.1C27.4 43.8 26.4 43.3 25.4 42.8C24.4 42.2 23.5 41.5 22.7 40.7C21.9 39.9 21.2 39 20.7 38C20.1 37 19.7 35.9 19.4 34.8C19.1 33.7 19 32.6 19 31.4C19 30.3 19.2 29.1 19.5 28C19.8 26.9 20.3 25.9 20.8 24.9C21.4 23.9 22.1 23 22.9 22.2C23.7 21.4 24.6 20.7 25.6 20.2L22.6 14.8C21.1 15.6 19.8 16.7 18.6 17.8C17.4 19 16.4 20.3 15.5 21.7C14.6 23.1 14 24.7 13.5 26.3C13 27.9 12.8 29.6 12.8 31.3C12.8 33 13 34.6 13.4 36.3C13.8 37.9 14.4 39.5 15.3 41C16.1 42.5 17.2 43.8 18.3 45C19.5 46.2 20.8 47.2 22.2 48.1C23.6 49 25.2 49.6 26.8 50.1C28.4 50.6 30.1 50.8 31.8 50.8C33.5 50.8 35.1 50.6 36.8 50.2C38.4 49.8 40 49.2 41.4 48.3C42.9 47.5 44.2 46.4 45.4 45.3C46.6 44.1 47.6 42.8 48.5 41.4C49.4 40 50 38.4 50.5 36.8C51 35.2 51.2 33.5 51.2 31.8C51.2 30.1 51 28.4 50.6 26.8Z" fill="white"/>
<path d="M38.6 30.5C39.2 34.2 36.7 37.7 32.9 38.3C29.2 38.9 25.7 36.4 25.1 32.6C24.5 28.9 27 25.4 30.8 24.8C34.5 24.2 38 26.8 38.6 30.5Z" fill="white"/>
<path d="M45.7 18.1L50.1 13.8C48.6 12.2 46.8 10.8 44.9 9.70001L41.8 15C43.2 15.9 44.5 16.9 45.7 18.1Z" fill="white"/>
</g>
<defs>
<clipPath id="clip0_453_220">
<rect width="272" height="63" fill="white"/>
</clipPath>
</defs>
</svg>
