<svg width="195" height="50" viewBox="0 0 195 50" fill="none" xmlns="http://www.w3.org/2000/svg">
<path d="M74.874 18.9619C74.874 30.124 67.6631 37.0936 56.0888 37.0936H45.7124V0.741375H56.0888C67.6631 0.717571 74.874 7.70936 74.874 18.9619ZM69.0868 18.9397C69.0868 11.2275 64.068 6.40177 56.065 6.40177H51.4089V31.411H56.1334C64.0903 31.411 69.0868 26.6075 69.0868 18.9397Z" fill="white"/>
<path d="M100.148 37.0936L90.336 23.0212H85.8597V37.0936H80.1409L80.1187 0.741375H91.4448C98.2261 0.741375 103.787 5.9511 103.787 12.4224C103.787 17.1132 100.759 21.1947 96.5765 22.5483L107.179 37.0936H100.148ZM91.58 18.2859C95.016 18.3081 97.8873 15.5343 97.8873 12.2875C97.8873 8.90428 94.9715 6.40177 91.58 6.40177H85.8374V18.2859H91.58Z" fill="white"/>
<path d="M109.28 18.9619C109.28 8.58849 117.735 0.109798 128.112 0.109798C138.466 0.109798 146.965 8.58849 146.965 18.9619C146.965 29.2449 138.466 37.6792 128.089 37.6792C117.735 37.6792 109.28 29.2449 109.28 18.9619ZM141.178 18.9175C141.178 11.7242 135.278 5.86065 128.089 5.86065C120.901 5.86065 115.045 11.7242 115.045 18.9175C115.045 26.0664 120.901 31.9077 128.089 31.9077C135.278 31.9061 141.178 26.0664 141.178 18.9175Z" fill="white"/>
<path d="M152.21 0.741375H157.929V37.0936H152.21V0.741375Z" fill="white"/>
<path d="M194.099 18.9619C194.099 30.124 186.888 37.0936 175.314 37.0936H164.938V0.741375H175.314C186.888 0.717571 194.099 7.70936 194.099 18.9619ZM188.312 18.9397C188.312 11.2275 183.293 6.40177 175.29 6.40177H170.632V31.411H175.357C183.315 31.411 188.312 26.6075 188.312 18.9397Z" fill="white"/>
<path d="M0.345703 45.0613C0.345703 42.4255 2.53934 40.2309 5.17521 40.2309C6.38259 40.242 7.55497 40.7958 8.40602 41.6511L7.78722 42.4827C7.11115 41.7908 6.16466 41.3068 5.13226 41.3068C3.24245 41.3068 1.41628 42.9365 1.41628 45.0598C1.41628 47.1782 3.22496 48.8016 5.14976 48.8016C6.21079 48.8016 7.11592 48.3017 7.79199 47.6384L8.40443 48.4874C7.62337 49.2618 6.56712 49.8664 5.17839 49.8664C2.56798 49.868 0.345703 47.7194 0.345703 45.0613Z" fill="white"/>
<path d="M18.9526 45.0613C18.9526 42.4017 21.1288 40.2309 23.7821 40.2309C26.4419 40.2309 28.618 42.4017 28.618 45.0613C28.618 47.7035 26.4419 49.868 23.7758 49.868C21.1288 49.868 18.9526 47.7019 18.9526 45.0613ZM27.5443 45.055C27.5443 42.9889 25.8533 41.2957 23.7758 41.2957C21.711 41.2957 20.0248 42.9889 20.0248 45.055C20.0248 47.1148 21.711 48.7968 23.7758 48.7968C25.8533 48.7968 27.5443 47.1148 27.5443 45.055Z" fill="white"/>
<path d="M45.7091 49.7458L43.0843 46.0849H41.3281V49.7458H40.2671L40.2607 40.3658H43.0366C44.7801 40.3658 46.2038 41.7035 46.2038 43.357C46.2038 44.5726 45.3702 45.6199 44.2265 45.9643L47.0214 49.7474H45.7091V49.7458ZM43.0716 45.1946C44.1915 45.1946 45.1125 44.3457 45.1125 43.3332C45.1125 42.251 44.1788 41.4131 43.0716 41.4131H41.3218V45.1899L43.0716 45.1946Z" fill="white"/>
<path d="M58.2666 40.3642H61.2477C63.0675 40.3642 64.5548 41.7257 64.5548 43.3903C64.5548 44.9852 63.0675 46.2832 61.2477 46.2832H59.3292V49.7458H58.2682V40.3642H58.2666ZM63.4938 43.3792C63.4938 42.297 62.4853 41.4131 61.2477 41.4131H59.3292V45.2359L61.2477 45.2422C62.4837 45.247 63.4938 44.4091 63.4938 43.3792Z" fill="white"/>
<path d="M75.502 45.0613C75.502 42.4017 77.6781 40.2309 80.3315 40.2309C82.9912 40.2309 85.1673 42.4017 85.1673 45.0613C85.1673 47.7035 82.9912 49.868 80.3251 49.868C77.6781 49.868 75.502 47.7019 75.502 45.0613ZM84.0952 45.055C84.0952 42.9889 82.4042 41.2957 80.3267 41.2957C78.2619 41.2957 76.5757 42.9889 76.5757 45.055C76.5757 47.1148 78.2619 48.7968 80.3267 48.7968C82.4026 48.7968 84.0952 47.1148 84.0952 45.055Z" fill="white"/>
<path d="M102.258 49.7458L99.6336 46.0849H97.8775V49.7458H96.8164L96.8101 40.3658H99.5859C101.329 40.3658 102.753 41.7035 102.753 43.357C102.753 44.5726 101.92 45.6199 100.776 45.9643L103.571 49.7474H102.258V49.7458ZM99.6209 45.1946C100.741 45.1946 101.662 44.3457 101.662 43.3332C101.662 42.251 100.728 41.4131 99.6209 41.4131H97.8711V45.1899L99.6209 45.1946Z" fill="white"/>
<path d="M120.947 48.2034H115.813L115.125 49.7458H113.976L118.322 40.2198H118.438L122.79 49.7458H121.636L120.947 48.2034ZM120.538 47.283L118.386 42.4589L116.227 47.283H120.538Z" fill="white"/>
<path d="M138.742 41.4115H136.017V49.7442H134.956V41.4115H132.22V40.3642H138.742V41.4115Z" fill="white"/>
<path d="M150.186 40.3642H151.247V49.7442H150.186V40.3642Z" fill="white"/>
<path d="M162.89 45.0613C162.89 42.4017 165.066 40.2309 167.719 40.2309C170.379 40.2309 172.555 42.4017 172.555 45.0613C172.555 47.7035 170.379 49.868 167.713 49.868C165.066 49.868 162.89 47.7019 162.89 45.0613ZM171.483 45.055C171.483 42.9889 169.792 41.2957 167.714 41.2957C165.65 41.2957 163.963 42.9889 163.963 45.055C163.963 47.1148 165.65 48.7968 167.714 48.7968C169.79 48.7968 171.483 47.1148 171.483 45.055Z" fill="white"/>
<path d="M191.757 40.342V49.8918H191.704L185.259 42.7524V49.7585H184.198V40.2214H184.257L190.696 47.356V40.3435H191.757V40.342Z" fill="white"/>
<path d="M33.8324 37.0412H32.1144C31.02 31.7871 26.165 27.6025 20.7072 27.6025C15.2366 27.6025 10.3721 31.8045 9.29196 37.0412H7.5835C8.09413 34.05 9.63715 31.3729 11.8228 29.3972C14.1931 27.255 17.3189 25.9378 20.7072 25.9378C24.0875 25.9378 27.2085 27.2502 29.5772 29.383C31.7724 31.3602 33.3218 34.0436 33.8324 37.0412Z" fill="white"/>
<path d="M36.3155 37.0412H34.6245C34.5338 36.4747 34.4066 35.9193 34.2475 35.375C33.7782 33.7723 33.0242 32.2806 32.0475 30.9572C31.1742 29.7765 30.1227 28.7308 28.936 27.8659C26.6071 26.1664 23.7565 25.1555 20.707 25.1555C17.6512 25.1555 14.7942 26.1711 12.4622 27.8786C11.2485 28.7657 10.1779 29.8416 9.29503 31.0571C8.03834 32.7868 7.16342 34.8021 6.80232 36.9714L6.7721 37.0412H5.09863C5.59495 33.5628 7.26205 30.4255 9.67998 28.0484C10.1222 27.6136 10.5899 27.2042 11.0798 26.8217C11.8593 26.214 12.6976 25.6776 13.5821 25.2222C15.7296 24.1161 18.1539 23.4893 20.707 23.4893C23.2522 23.4893 25.6702 24.1129 27.8129 25.2126C28.6862 25.6601 29.5134 26.187 30.2865 26.7852C30.7828 27.1693 31.2569 27.5803 31.7039 28.0182C34.1393 30.4002 35.8176 33.5485 36.3155 37.0412Z" fill="white"/>
<path d="M22.0591 7.2095L21.3798 5.59563H20.0277L19.7461 6.26371L19.7398 6.28117L12.7532 22.8514L11.6826 25.3904C12.4366 24.8937 13.232 24.4557 14.0608 24.0844C16.1049 23.1687 18.3558 22.6578 20.7069 22.6578C23.0485 22.6578 25.2931 23.1656 27.3308 24.0748C28.15 24.4414 28.9375 24.8715 29.6835 25.3602L22.0591 7.2095ZM20.7085 20.9915C18.7105 20.9915 16.7794 21.3232 14.9691 21.9357L20.6608 8.43456L20.6688 8.41552C21.9366 11.3751 23.2394 14.4219 24.2861 16.872C24.2972 16.899 24.31 16.9275 24.3211 16.9545C25.5412 19.8141 26.4002 21.8405 26.4241 21.9262C26.4241 21.9278 26.4241 21.9278 26.4241 21.9278C24.6202 21.3216 22.6985 20.9915 20.7085 20.9915Z" fill="white"/>
<path d="M26.4243 21.9262L24.3213 16.9545C25.5414 19.8141 26.402 21.8405 26.4243 21.9262Z" fill="white"/>
<path d="M23.707 4.76252H23.6816L23.0039 3.0963H23.0055L23.707 4.76252Z" fill="white"/>
<path d="M25.9056 3.63584L25.6781 3.09789L24.6219 0.598553H16.7413L1.39697 37.0428H4.25873C4.33509 36.4795 4.44167 35.9225 4.57688 35.3766C5.07797 33.3422 5.9656 31.4427 7.15548 29.7654C8.07334 28.4721 9.17096 27.3089 10.4101 26.3171L11.6143 23.4623L19.2992 5.25128L19.3056 5.23542L19.5045 4.76252H21.924L22.2739 5.59563L30.9785 26.2981C32.2034 27.274 33.2899 28.4181 34.203 29.6892C35.6362 31.6855 36.64 34.0008 37.0695 36.4858C37.1013 36.6699 37.1299 36.854 37.1538 37.0397H40.0156L25.9056 3.63584ZM32.3259 25.2317L23.7072 4.76252H23.6818L23.0041 3.0963H18.4116L18.4021 3.12011L18.3973 3.1328L9.0612 25.2555C8.51875 25.7077 8.00335 26.1917 7.51499 26.7027L17.8389 2.26319H23.5275L23.879 3.0963L24.5821 4.76252L33.7798 26.5742C33.3185 26.1013 32.8333 25.6522 32.3259 25.2317Z" fill="white"/>
<path d="M23.707 4.76252H23.6816L23.0039 3.0963H23.0055L23.707 4.76252Z" fill="white"/>
<path d="M26.4244 21.9262L20.6611 8.43456L20.6691 8.41552C21.9369 11.375 23.2397 14.4219 24.2864 16.872C24.2976 16.899 24.3103 16.9275 24.3214 16.9545C25.5415 19.8141 26.4021 21.8405 26.4244 21.9262Z" fill="white"/>
</svg>
